<svg width="16" height="18" viewBox="0 0 16 18" fill="none" xmlns="http://www.w3.org/2000/svg">
<path d="M12.4457 0H3.55429C1.6 0 0 1.56326 0 3.47266V16.1574C0 17.7764 1.18857 18.4576 2.64 17.6759L7.13143 15.2306C7.61143 14.9737 8.38857 14.9737 8.86857 15.2306L13.36 17.6759C14.8114 18.4576 16 17.7764 16 16.1574V3.47266C16 1.56326 14.4 0 12.4457 0ZM10.2857 7.67111H5.71429C5.24571 7.67111 4.85714 7.29146 4.85714 6.83365C4.85714 6.37584 5.24571 5.99619 5.71429 5.99619H10.2857C10.7543 5.99619 11.1429 6.37584 11.1429 6.83365C11.1429 7.29146 10.7543 7.67111 10.2857 7.67111Z" fill="#FF9750"/>
</svg>
