<svg width="13" height="11" viewBox="0 0 13 11" fill="none" xmlns="http://www.w3.org/2000/svg">
<path d="M3.63019 10.4355C3.54048 10.4869 3.43072 10.5065 3.32434 10.4899C3.21796 10.4734 3.12338 10.422 3.06078 10.3469C3.03048 10.3088 3.00947 10.2659 2.99898 10.2207C2.9885 10.1756 2.98875 10.1291 2.99974 10.084C3.01072 10.039 3.03221 9.99623 3.06293 9.95838C3.09365 9.92052 3.13297 9.88831 3.17857 9.86366L5.28846 8.71036L5.88454 9.07081L3.63019 10.4355ZM9.49649 10.0841C9.51294 10.1521 9.50503 10.2226 9.4738 10.2866C9.44256 10.3507 9.38945 10.4052 9.32136 10.4431C9.25327 10.4811 9.17337 10.5007 9.09204 10.4994C9.01071 10.4981 8.93172 10.4759 8.86535 10.4358L2.97827 6.87429C2.94237 6.8526 2.89938 6.84106 2.85538 6.84132C2.81137 6.84158 2.76858 6.85361 2.73303 6.87573C2.4843 7.0141 2.19185 7.08427 1.89497 7.07681C1.59809 7.06936 1.31099 6.98463 1.07225 6.83403C0.751026 6.65442 0.517093 6.38164 0.41381 6.06624C0.364388 5.92846 0.351729 5.78301 0.376759 5.64053C0.40179 5.49804 0.463876 5.36213 0.558475 5.24274C0.653073 5.12334 0.777791 5.02349 0.923502 4.95048C1.06921 4.87747 1.23223 4.83316 1.40062 4.82078C1.78234 4.78426 2.16665 4.86692 2.48234 5.05344C2.73541 5.18584 2.9349 5.38107 3.05402 5.61291C3.17315 5.84476 3.2062 6.10212 3.14875 6.35045C3.13796 6.38685 3.14087 6.42522 3.15708 6.46013C3.17328 6.49505 3.20195 6.52473 3.23904 6.54499L9.31823 9.86348C9.36383 9.88815 9.40312 9.92041 9.43375 9.95832C9.46438 9.99624 9.48572 10.039 9.49649 10.0841ZM11.4239 6.83367C11.1851 6.98424 10.898 7.06891 10.601 7.0763C10.3041 7.08369 10.0116 7.01345 9.76293 6.87501C9.72739 6.8529 9.68459 6.84086 9.64058 6.8406C9.59658 6.84035 9.55359 6.85188 9.5177 6.87358L7.1949 8.27922L6.63809 7.97497L9.25714 6.5432C9.29414 6.52296 9.32276 6.49334 9.33896 6.4585C9.35516 6.42366 9.35812 6.38536 9.34742 6.34901C9.29111 6.10065 9.32479 5.84356 9.44397 5.61189C9.56315 5.38023 9.7622 5.18495 10.0147 5.05201C10.6865 4.66597 11.5503 4.75116 11.9385 5.24136C12.3268 5.73156 12.0956 6.44763 11.4239 6.83367Z" fill="#EF4A23"/>
<path d="M4.3206 6.06393L4.23662 5.70599H8.25946L8.17548 6.06393H4.3206ZM3.51855 0.873755C3.71864 0.873318 3.91668 0.908058 4.10031 0.975804C4.28394 1.04355 4.4492 1.14285 4.58578 1.26749C4.60912 1.28853 4.63809 1.30442 4.67022 1.31382C4.70235 1.32321 4.73667 1.32582 4.77024 1.32142C4.80381 1.31702 4.83563 1.30574 4.86296 1.28856C4.8903 1.27137 4.91233 1.24879 4.92718 1.22275C5.04712 1.01101 5.23467 0.832398 5.46831 0.707406C5.70195 0.582415 5.9722 0.516113 6.24804 0.516113C6.52388 0.516113 6.79413 0.582415 7.02777 0.707406C7.2614 0.832398 7.44896 1.01101 7.5689 1.22275C7.58375 1.24879 7.60578 1.27137 7.63311 1.28856C7.66045 1.30574 7.69227 1.31702 7.72584 1.32142C7.75941 1.32582 7.79373 1.32321 7.82585 1.31382C7.85798 1.30442 7.88696 1.28853 7.9103 1.26749C8.04687 1.14285 8.21214 1.04355 8.39576 0.975804C8.57939 0.908058 8.77744 0.873318 8.97752 0.873755C9.36732 0.873755 9.74115 1.00575 10.0168 1.24069C10.2924 1.47564 10.4472 1.79429 10.4472 2.12656C10.4472 2.45882 10.2924 2.77747 10.0168 3.01242C9.74115 3.24736 9.36732 3.37936 8.97752 3.37936C8.92912 3.37935 8.8822 3.39359 8.84471 3.41969C8.80721 3.44578 8.78144 3.48211 8.77176 3.52253L8.34344 5.34804H7.53992L7.71566 4.29963L7.29994 4.2488L7.1158 5.34804H6.458V3.37936H6.03808V5.34804H5.38027L5.19614 4.2488L4.78041 4.29963L4.95615 5.34804H4.15263L3.72431 3.52253C3.71463 3.48211 3.68886 3.44578 3.65137 3.41969C3.61387 3.39359 3.56695 3.37935 3.51855 3.37936C3.12876 3.37936 2.75493 3.24736 2.4793 3.01242C2.20367 2.77747 2.04883 2.45882 2.04883 2.12656C2.04883 1.79429 2.20367 1.47564 2.4793 1.24069C2.75493 1.00575 3.12876 0.873755 3.51855 0.873755Z" fill="#EF4A23"/>
</svg>
