<svg width="14" height="14" viewBox="0 0 14 14" fill="none" xmlns="http://www.w3.org/2000/svg">
<path opacity="0.5" d="M7 3.20898L8.16667 4.37531" stroke="#EF4A23" stroke-width="3.75" stroke-linecap="round"/>
<path d="M7.00032 3.20889L6.68509 3.51228C6.76757 3.59798 6.88138 3.64639 7.00032 3.64639C7.11927 3.64639 7.23307 3.59798 7.31556 3.51228L7.00032 3.20889ZM5.49885 10.688C4.61472 9.991 3.64795 9.31037 2.88099 8.44674C2.12904 7.59998 1.60449 6.61198 1.60449 5.33017H0.729492C0.729492 6.88504 1.37728 8.07125 2.22675 9.02774C3.06121 9.96738 4.12494 10.7191 4.95715 11.3751L5.49885 10.688ZM1.60449 5.33017C1.60449 4.07549 2.31346 3.02333 3.2812 2.58097C4.22137 2.15122 5.48463 2.26503 6.68509 3.51228L7.31556 2.9055C5.89112 1.42558 4.23771 1.18167 2.91743 1.78517C1.62474 2.37606 0.729492 3.74813 0.729492 5.33017H1.60449ZM4.95715 11.3751C5.25595 11.6107 5.57672 11.8619 5.90179 12.0518C6.22677 12.2417 6.59759 12.396 7.00032 12.396V11.521C6.81972 11.521 6.60722 11.4506 6.34326 11.2963C6.07942 11.1422 5.8057 10.9299 5.49885 10.688L4.95715 11.3751ZM9.04351 11.3751C9.87569 10.7191 10.9395 9.96738 11.7739 9.02774C12.6234 8.07125 13.2712 6.88504 13.2712 5.33017H12.3962C12.3962 6.61198 11.8716 7.59998 11.1196 8.44674C10.3527 9.31037 9.38592 9.991 8.50182 10.688L9.04351 11.3751ZM13.2712 5.33017C13.2712 3.74813 12.3759 2.37606 11.0832 1.78517C9.76293 1.18167 8.10953 1.42558 6.68509 2.9055L7.31556 3.51228C8.516 2.26503 9.77927 2.15122 10.7194 2.58097C11.6872 3.02333 12.3962 4.07549 12.3962 5.33017H13.2712ZM8.50182 10.688C8.19493 10.9299 7.92123 11.1422 7.65739 11.2963C7.39343 11.4506 7.18092 11.521 7.00032 11.521V12.396C7.40306 12.396 7.77388 12.2417 8.09886 12.0518C8.42395 11.8619 8.74467 11.6107 9.04351 11.3751L8.50182 10.688Z" fill="#EF4A23"/>
</svg>
