<svg width="15" height="16" viewBox="0 0 15 16" fill="none" xmlns="http://www.w3.org/2000/svg">
<path d="M12.5 6.75C12.5 9.51125 7.5 14.25 7.5 14.25C7.5 14.25 2.5 9.51125 2.5 6.75C2.5 5.42392 3.02678 4.15215 3.96447 3.21447C4.90215 2.27678 6.17392 1.75 7.5 1.75C8.82608 1.75 10.0979 2.27678 11.0355 3.21447C11.9732 4.15215 12.5 5.42392 12.5 6.75Z" fill="#EF4A23"/>
<path d="M7.5 7.25C7.69891 7.25 7.88968 7.17098 8.03033 7.03033C8.17098 6.88968 8.25 6.69891 8.25 6.5C8.25 6.30109 8.17098 6.11032 8.03033 5.96967C7.88968 5.82902 7.69891 5.75 7.5 5.75C7.30109 5.75 7.11032 5.82902 6.96967 5.96967C6.82902 6.11032 6.75 6.30109 6.75 6.5C6.75 6.69891 6.82902 6.88968 6.96967 7.03033C7.11032 7.17098 7.30109 7.25 7.5 7.25Z" fill="white" stroke="white" stroke-width="1.25" stroke-linecap="round" stroke-linejoin="round"/>
</svg>
