<svg width="38" height="35" viewBox="0 0 38 35" fill="none" xmlns="http://www.w3.org/2000/svg">
<path d="M36.1267 12.3245L24.9349 10.7277L19.9318 0.770296C19.7952 0.497669 19.5704 0.276971 19.2927 0.142821C18.5962 -0.194718 17.7499 0.0865644 17.4017 0.770296L12.3986 10.7277L1.20683 12.3245C0.898273 12.3678 0.616164 12.5106 0.400174 12.7269C0.139054 12.9904 -0.00483513 13.3449 0.000124066 13.7125C0.00508326 14.0801 0.158485 14.4307 0.426621 14.6873L8.52404 22.4377L6.61099 33.3817C6.56613 33.6363 6.59482 33.8981 6.69382 34.1375C6.79282 34.3769 6.95816 34.5842 7.1711 34.7361C7.38404 34.8879 7.63605 34.9781 7.89855 34.9965C8.16106 35.0149 8.42356 34.9607 8.65628 34.84L18.6668 29.6731L28.6772 34.84C28.9505 34.9828 29.2679 35.0304 29.572 34.9785C30.339 34.8487 30.8548 34.1347 30.7225 33.3817L28.8095 22.4377L36.9069 14.6873C37.1273 14.4752 37.2728 14.1983 37.3168 13.8953C37.4358 13.1381 36.8981 12.437 36.1267 12.3245Z" fill="#EEA651"/>
</svg>
